<svg xmlns="http://www.w3.org/2000/svg" viewBox="0 0 128 128" fill="none">
  
  <circle cx="64" cy="64" r="58" stroke="#FF6B00" stroke-width="1.5" opacity="0.9"></circle>
  <path d="M64 22 L96 36 V64 C96 84 82 98 64 104 C46 98 32 84 32 64 V36 Z" stroke="#FF6B00" stroke-width="2.5" stroke-linejoin="round" fill="none"></path>
  <path d="M64 22 L78 28 V60 C78 76 72 84 64 88 C56 84 50 76 50 60 V28 Z" stroke="#FF6B00" stroke-width="0.75" opacity="0.45" fill="none"></path>
  <line x1="64" y1="22" x2="64" y2="104" stroke="#FF6B00" stroke-width="1.2"></line>
  
  <circle cx="64" cy="64" r="7" stroke="#FF6B00" stroke-width="1" fill="none"></circle>
  <circle cx="64" cy="64" r="3" stroke="#FF6B00" stroke-width="1" fill="none"></circle>
  <circle cx="64" cy="64" r="1.2" fill="#FF6B00"></circle>
  <line x1="54" y1="64" x2="60" y2="64" stroke="#FF6B00" stroke-width="1"></line>
  <line x1="68" y1="64" x2="74" y2="64" stroke="#FF6B00" stroke-width="1"></line>
  <line x1="64" y1="54" x2="64" y2="60" stroke="#FF6B00" stroke-width="1"></line>
  <line x1="64" y1="68" x2="64" y2="74" stroke="#FF6B00" stroke-width="1"></line>
  
  <circle cx="64" cy="22" r="1.6" fill="#FF6B00"></circle>
  <circle cx="32" cy="36" r="1.6" fill="#FF6B00"></circle>
  <circle cx="96" cy="36" r="1.6" fill="#FF6B00"></circle>
</svg>